<svg width="126" height="125" viewBox="0 0 126 125" fill="none" xmlns="http://www.w3.org/2000/svg">
<rect x="0.5" width="125" height="125" rx="62.5" fill="white"/>
<path d="M94.5751 32.4594C95.0839 31.9403 95.6911 31.5279 96.3612 31.2464C97.0313 30.9648 97.7508 30.8198 98.4777 30.8198C99.2045 30.8198 99.9241 30.9648 100.594 31.2464C101.264 31.5279 101.871 31.9403 102.38 32.4594C104.512 34.6138 104.542 38.0951 102.455 40.2868L58.3751 92.3951C57.8747 92.9447 57.2674 93.3864 56.5903 93.6932C55.9133 94 55.1808 94.1654 54.4376 94.1793C53.6945 94.1933 52.9563 94.0555 52.2682 93.7743C51.5801 93.4932 50.9566 93.0746 50.4359 92.5442L23.6139 65.3644C22.5794 64.3095 22 62.8909 22 61.4134C22 59.9359 22.5794 58.5174 23.6139 57.4624C24.1226 56.9433 24.7298 56.5309 25.3999 56.2494C26.07 55.9679 26.7896 55.8229 27.5164 55.8229C28.2433 55.8229 28.9628 55.9679 29.6329 56.2494C30.303 56.5309 30.9102 56.9433 31.419 57.4624L54.1707 80.5198L94.4261 32.6234C94.4724 32.5658 94.5222 32.511 94.5751 32.4594Z" fill="#D17842"/>
</svg>
